<?xml version="1.0" encoding="utf-8"?>
<!-- Generated by IcoMoon.io -->
<!DOCTYPE svg PUBLIC "-//W3C//DTD SVG 1.1//EN" "http://www.w3.org/Graphics/SVG/1.1/DTD/svg11.dtd">
<svg version="1.1" xmlns="http://www.w3.org/2000/svg" xmlns:xlink="http://www.w3.org/1999/xlink" width="32" height="50" viewBox="0 0 32 50">
<g>
</g>
	<path d="M25 25.893v1.786q0 0.391-0.251 0.642t-0.642 0.251h-6.25v6.25q0 0.391-0.251 0.642t-0.642 0.251h-1.786q-0.391 0-0.642-0.251t-0.251-0.642v-6.25h-6.25q-0.391 0-0.642-0.251t-0.251-0.642v-1.786q0-0.391 0.251-0.642t0.642-0.251h6.25v-6.25q0-0.391 0.251-0.642t0.642-0.251h1.786q0.391 0 0.642 0.251t0.251 0.642v6.25h6.25q0.391 0 0.642 0.251t0.251 0.642zM28.571 36.607v-19.643q0-1.116-0.781-1.897t-1.897-0.781h-19.643q-1.116 0-1.897 0.781t-0.781 1.897v19.643q0 1.116 0.781 1.897t1.897 0.781h19.643q1.116 0 1.897-0.781t0.781-1.897zM32.143 16.964v19.643q0 2.567-1.828 4.408t-4.422 1.842h-19.643q-2.595 0-4.422-1.842t-1.828-4.408v-19.643q0-2.595 1.828-4.422t4.422-1.828h19.643q2.595 0 4.422 1.828t1.828 4.422z" fill="#ffffff" />
</svg>
